<?xml version="1.0" encoding="utf-8"?><svg xmlns="http://www.w3.org/2000/svg" xmlns:xlink="http://www.w3.org/1999/xlink"><symbol viewBox="0 0 9 7" id="check" xmlns="http://www.w3.org/2000/svg"><path d="M7.648 0L9 1.314 3.305 6.851 0 3.638l1.352-1.314 1.953 1.898L7.648 0z"/></symbol><symbol viewBox="0 0 12 11" id="close" xmlns="http://www.w3.org/2000/svg"><path d="M5.293 5.354L.646.707 1.354 0 6 4.646 10.647 0l.707.707-4.647 4.647L11.354 10l-.707.707L6 6.061l-4.646 4.646L.647 10l4.646-4.646z"/></symbol><symbol viewBox="0 0 14 9" id="down" xmlns="http://www.w3.org/2000/svg"><path fill-rule="evenodd" clip-rule="evenodd" d="M13.04 1.707L11.626.293l-5.25 5.25L1.747.336.252 1.664 6.29 8.457l6.75-6.75z"/></symbol><symbol viewBox="0 0 9 14" id="left" xmlns="http://www.w3.org/2000/svg"><path fill-rule="evenodd" clip-rule="evenodd" d="M7.293.293l1.414 1.414-5.25 5.25 5.207 4.629-1.328 1.495L.543 7.043l6.75-6.75z"/></symbol><symbol viewBox="0 0 9 14" id="right" xmlns="http://www.w3.org/2000/svg"><path fill-rule="evenodd" clip-rule="evenodd" d="M1.707 13.707L.293 12.293l5.25-5.25L.336 2.414 1.664.92l6.793 6.038-6.75 6.75z"/></symbol><symbol viewBox="0 0 14 9" id="top" xmlns="http://www.w3.org/2000/svg"><path fill-rule="evenodd" clip-rule="evenodd" d="M13.04 7.293l-1.414 1.414-5.25-5.25-4.629 5.207L.252 7.336 6.29.543l6.75 6.75z"/></symbol></svg>